<svg width="145" height="144" viewBox="0 0 145 144" fill="none" xmlns="http://www.w3.org/2000/svg">
<g clip-path="url(#clip0_10_209)">
<path fill-rule="evenodd" clip-rule="evenodd" d="M132.377 72C132.377 39.0026 105.629 12.2553 72.6318 12.2553C39.6344 12.2553 12.8872 39.0026 12.8872 72C12.8872 104.997 39.6344 131.745 72.6318 131.745C105.629 131.745 132.377 104.997 132.377 72ZM44.5978 5.66808C53.4829 1.89957 62.9195 0 72.6318 0C82.3442 0 91.7808 1.89957 100.666 5.66808C109.245 9.2834 116.935 14.4613 123.553 21.0791C130.14 27.697 135.348 35.3872 138.964 43.966C142.732 52.8511 144.632 62.2877 144.632 72C144.632 81.7123 142.732 91.1489 138.964 100.034C135.348 108.613 130.171 116.303 123.553 122.921C116.935 129.508 109.245 134.717 100.666 138.332C91.7808 142.1 82.3442 144 72.6318 144C62.9195 144 53.4829 142.1 44.5978 138.332C36.0191 134.717 28.3289 129.539 21.711 122.921C15.1238 116.303 9.91524 108.613 6.29992 100.034C2.53141 91.1489 0.631836 81.7123 0.631836 72C0.631836 62.2877 2.53141 52.8511 6.29992 43.966C9.91524 35.3872 15.0931 27.697 21.711 21.0791C28.3289 14.4919 36.0191 9.2834 44.5978 5.66808ZM102.138 72C102.138 78.3454 96.9945 83.4894 90.6491 83.4894C84.3037 83.4894 79.1597 78.3454 79.1597 72C79.1597 65.6546 84.3037 60.5107 90.6491 60.5107C96.9945 60.5107 102.138 65.6546 102.138 72ZM63.8398 60.1431C70.1852 60.1431 75.3292 54.9991 75.3292 48.6537C75.3292 42.3083 70.1852 37.1643 63.8398 37.1643C57.4945 37.1643 52.3505 42.3083 52.3505 48.6537C52.3505 54.9991 57.4945 60.1431 63.8398 60.1431ZM75.329 95.3772C75.329 101.723 70.1851 106.867 63.8397 106.867C57.4943 106.867 52.3503 101.723 52.3503 95.3772C52.3503 89.0318 57.4943 83.8878 63.8397 83.8878C70.1851 83.8878 75.329 89.0318 75.329 95.3772Z" fill="black" fill-opacity="0.8"/>
</g>
<defs>
<clipPath id="clip0_10_209">
<rect width="144" height="144" fill="white" transform="translate(0.631836)"/>
</clipPath>
</defs>
</svg>
