<svg width="145" height="144" viewBox="0 0 145 144" fill="none" xmlns="http://www.w3.org/2000/svg">
<g clip-path="url(#clip0_10_217)">
<path fill-rule="evenodd" clip-rule="evenodd" d="M132.693 72C132.693 39.0026 105.946 12.2553 72.9482 12.2553C39.9508 12.2553 13.2036 39.0026 13.2036 72C13.2036 104.997 39.9508 131.745 72.9482 131.745C105.946 131.745 132.693 104.997 132.693 72ZM44.9142 5.66808C53.7993 1.89957 63.2359 0 72.9482 0C82.6606 0 92.0972 1.89957 100.982 5.66808C109.561 9.2834 117.251 14.4613 123.869 21.0791C130.456 27.697 135.665 35.3872 139.28 43.966C143.049 52.8511 144.948 62.2877 144.948 72C144.948 81.7123 143.049 91.1489 139.28 100.034C135.665 108.613 130.487 116.303 123.869 122.921C117.251 129.508 109.561 134.717 100.982 138.332C92.0972 142.1 82.6606 144 72.9482 144C63.2359 144 53.7993 142.1 44.9142 138.332C36.3355 134.717 28.6453 129.539 22.0274 122.921C15.4402 116.303 10.2316 108.613 6.61633 100.034C2.84782 91.1489 0.948242 81.7123 0.948242 72C0.948242 62.2877 2.84782 52.8511 6.61633 43.966C10.2316 35.3872 15.4095 27.697 22.0274 21.0791C28.6453 14.4919 36.3355 9.2834 44.9142 5.66808ZM65.2879 110.604C65.2879 114.833 68.7194 118.264 72.9475 118.264C77.1756 118.264 80.6071 114.833 80.6071 110.604V33.3959C80.6071 29.1678 77.1756 25.7364 72.9475 25.7364C68.7194 25.7364 65.2879 29.1678 65.2879 33.3959V110.604ZM40.7785 88.8513C40.7785 93.0794 44.21 96.5109 48.438 96.5109C52.6661 96.5109 56.0976 93.0794 56.0976 88.8513V55.1492C56.0976 50.9211 52.6661 47.4896 48.438 47.4896C44.21 47.4896 40.7785 50.9211 40.7785 55.1492V88.8513ZM97.4588 96.5109C93.2307 96.5109 89.7992 93.0794 89.7992 88.8513V55.1492C89.7992 50.9211 93.2307 47.4896 97.4588 47.4896C101.687 47.4896 105.118 50.9211 105.118 55.1492V88.8513C105.118 93.0794 101.687 96.5109 97.4588 96.5109Z" fill="black" fill-opacity="0.8"/>
</g>
<defs>
<clipPath id="clip0_10_217">
<rect width="144" height="144" fill="white" transform="translate(0.948242)"/>
</clipPath>
</defs>
</svg>
