<svg width="144" height="144" viewBox="0 0 144 144" fill="none" xmlns="http://www.w3.org/2000/svg">
<path fill-rule="evenodd" clip-rule="evenodd" d="M131.745 72C131.745 39.0026 104.997 12.2553 72 12.2553C39.0026 12.2553 12.2553 39.0026 12.2553 72C12.2553 104.997 39.0026 131.745 72 131.745C104.997 131.745 131.745 104.997 131.745 72ZM43.966 5.66808C52.8511 1.89957 62.2877 0 72 0C81.7123 0 91.1489 1.89957 100.034 5.66808C108.613 9.2834 116.303 14.4613 122.921 21.0791C129.508 27.697 134.717 35.3872 138.332 43.966C142.1 52.8511 144 62.2877 144 72C144 81.7123 142.1 91.1489 138.332 100.034C134.717 108.613 129.539 116.303 122.921 122.921C116.303 129.508 108.613 134.717 100.034 138.332C91.1489 142.1 81.7123 144 72 144C62.2877 144 52.8511 142.1 43.966 138.332C35.3872 134.717 27.697 129.539 21.0791 122.921C14.4919 116.303 9.2834 108.613 5.66808 100.034C1.89957 91.1489 0 81.7123 0 72C0 62.2877 1.89957 52.8511 5.66808 43.966C9.2834 35.3872 14.4613 27.697 21.0791 21.0791C27.697 14.4919 35.3872 9.2834 43.966 5.66808ZM72.0011 26.0428C46.6326 26.0428 26.0436 46.6317 26.0436 72.0003C26.0436 97.3688 46.6326 117.958 72.0011 117.958C97.3696 117.958 117.959 97.3688 117.959 72.0003C117.959 46.6317 97.3696 26.0428 72.0011 26.0428Z" fill="black" fill-opacity="0.8"/>
</svg>
