<svg width="145" height="144" viewBox="0 0 145 144" fill="none" xmlns="http://www.w3.org/2000/svg">
<g clip-path="url(#clip0_10_204)">
<path fill-rule="evenodd" clip-rule="evenodd" d="M132.061 72C132.061 39.0026 105.314 12.2553 72.3164 12.2553C39.319 12.2553 12.5717 39.0026 12.5717 72C12.5717 104.997 39.319 131.745 72.3164 131.745C105.314 131.745 132.061 104.997 132.061 72ZM44.2824 5.66808C53.1675 1.89957 62.6041 0 72.3164 0C82.0287 0 91.4653 1.89957 100.35 5.66808C108.929 9.2834 116.619 14.4613 123.237 21.0791C129.824 27.697 135.033 35.3872 138.648 43.966C142.417 52.8511 144.316 62.2877 144.316 72C144.316 81.7123 142.417 91.1489 138.648 100.034C135.033 108.613 129.855 116.303 123.237 122.921C116.619 129.508 108.929 134.717 100.35 138.332C91.4653 142.1 82.0287 144 72.3164 144C62.6041 144 53.1675 142.1 44.2824 138.332C35.7036 134.717 28.0134 129.539 21.3956 122.921C14.8083 116.303 9.59981 108.613 5.98449 100.034C2.21598 91.1489 0.316406 81.7123 0.316406 72C0.316406 62.2877 2.21598 52.8511 5.98449 43.966C9.59981 35.3872 14.7777 27.697 21.3956 21.0791C28.0134 14.4919 35.7036 9.2834 44.2824 5.66808ZM26.36 72.0003C26.36 46.6317 46.9489 26.0428 72.3174 26.0428C97.6859 26.0428 118.275 46.6317 118.275 72.0003C118.275 97.3688 97.6859 117.958 72.3174 117.958C46.9489 117.958 26.36 97.3688 26.36 72.0003ZM64.6578 42.3423C51.4527 45.7431 41.6791 57.7534 41.6791 72.0002C41.6791 86.247 51.4527 98.2573 64.6578 101.689L64.6578 42.3423ZM79.977 42.3423L79.977 101.658C93.1821 98.2573 102.956 86.2471 102.956 72.0003C102.956 57.7534 93.1821 45.7431 79.977 42.3423Z" fill="black" fill-opacity="0.8"/>
</g>
<defs>
<clipPath id="clip0_10_204">
<rect width="144" height="144" fill="white" transform="translate(0.316406)"/>
</clipPath>
</defs>
</svg>
