<svg width="409" height="74" viewBox="0 0 409 74" fill="none" xmlns="http://www.w3.org/2000/svg">
<path d="M0.375 72H40.2188C47.1198 72 52.8652 70.291 57.4551 66.873C62.0775 63.4551 64.3887 58.4583 64.3887 51.8828C64.3887 46.707 63.1354 42.7194 60.6289 39.9199C58.1224 37.0879 55.0625 35.3626 51.4492 34.7441V34.5488C54.0859 33.735 56.3483 31.9447 58.2363 29.1777C60.1569 26.3783 61.1172 22.9277 61.1172 18.8262C61.1172 12.9342 59.1641 8.47461 55.2578 5.44727C51.3516 2.41992 45.8991 0.90625 38.9004 0.90625H0.375V72ZM14.3398 61.6484V39.9688H37.8262C41.3092 39.9688 44.2064 40.8314 46.5176 42.5566C48.8288 44.2819 49.9844 46.8861 49.9844 50.3691C49.9844 54.3079 48.8288 57.1725 46.5176 58.9629C44.2064 60.7533 41.3092 61.6484 37.8262 61.6484H14.3398ZM14.3398 31.0332V11.5996H36.6055C40.056 11.5996 42.6927 12.4134 44.5156 14.041C46.3711 15.6361 47.2988 18.0124 47.2988 21.1699C47.2988 24.3275 46.3711 26.7689 44.5156 28.4941C42.6927 30.1868 40.056 31.0332 36.6055 31.0332H14.3398ZM70.3945 58.4258C70.3945 62.8203 72.1686 66.2871 75.7168 68.8262C79.265 71.3652 84.1152 72.6348 90.2676 72.6348C95.6387 72.6348 100.294 71.821 104.232 70.1934C108.204 68.5658 110.84 66.7266 112.143 64.6758C112.273 66.4661 112.452 67.9473 112.68 69.1191C112.94 70.291 113.282 71.2513 113.705 72H127.572V71.2676C126.791 70.1283 126.189 68.6309 125.766 66.7754C125.375 64.9199 125.18 62.9993 125.18 61.0137V41.873C125.18 35.9811 123.145 31.7656 119.076 29.2266C115.04 26.6875 108.822 25.418 100.424 25.418C92.5788 25.418 86.3125 26.8014 81.625 29.5684C76.9375 32.3027 74.5938 35.8021 74.5938 40.0664V42.6055L87.5332 42.6543V40.5059C87.5332 38.6178 88.5423 37.2018 90.5605 36.2578C92.6113 35.3138 95.5085 34.8418 99.252 34.8418C103.679 34.8418 106.788 35.3138 108.578 36.2578C110.401 37.2018 111.312 38.5853 111.312 40.4082V44.4121L91.6836 44.168C84.7826 44.1029 79.5091 45.3073 75.8633 47.7812C72.2174 50.2552 70.3945 53.8034 70.3945 58.4258ZM84.1641 57.8398C84.1641 55.724 85.0755 54.2917 86.8984 53.543C88.7539 52.7617 91.5046 52.3874 95.1504 52.4199L111.312 52.5664V54.1777C111.312 57.5306 109.473 59.9883 105.795 61.5508C102.149 63.0807 98.3079 63.8457 94.2715 63.8457C90.821 63.8457 88.2656 63.3086 86.6055 62.2344C84.9779 61.1602 84.1641 59.6953 84.1641 57.8398ZM131.771 38.3574H173.91V27.0781H131.771V38.3574ZM143.1 55.252C143.1 61.1764 144.874 65.6198 148.422 68.582C152.003 71.5117 156.479 72.9766 161.85 72.9766C165.593 72.9766 168.311 72.765 170.004 72.3418C171.697 71.9512 173.031 71.5443 174.008 71.1211L172.934 60.9648C172.217 61.2253 171.355 61.5182 170.346 61.8438C169.337 62.1367 167.807 62.2832 165.756 62.2832C163.054 62.2832 160.857 61.4531 159.164 59.793C157.504 58.1328 156.674 55.5449 156.674 52.0293V11.1113H143.49V29.9102L143.1 30.4473V55.252ZM183.041 72H196.859V45.6328C198.064 43.6471 200.212 41.7103 203.305 39.8223C206.43 37.9342 210.027 36.9902 214.096 36.9902C217.351 36.9902 219.711 37.9342 221.176 39.8223C222.673 41.6777 223.422 44.2982 223.422 47.6836V72H237.24V45.6816C237.338 39.041 235.727 34.0117 232.406 30.5938C229.086 27.1432 223.926 25.4342 216.928 25.4668C211.915 25.4342 207.602 26.5247 203.988 28.7383C200.375 30.9518 197.982 33.0677 196.811 35.0859V0.759766H183.041V72ZM253.5 72H256.332L256.283 65.7012H256.186C257.715 67.2637 260.271 68.9564 263.852 70.7793C267.465 72.5697 271.973 73.4648 277.377 73.4648C285.189 73.4648 291.488 71.3978 296.273 67.2637C301.091 63.1296 303.5 57.2539 303.5 49.6367V49.002C303.5 41.8079 301.156 36.1276 296.469 31.9609C291.781 27.7617 285.368 25.6621 277.23 25.6621C271.599 25.6621 266.977 26.6712 263.363 28.6895C259.75 30.6751 257.276 32.791 255.941 35.0371V0.759766H253.5V72ZM256.234 61.9902V37.6738C257.667 35.0371 260.271 32.7259 264.047 30.7402C267.823 28.7546 272.38 27.7617 277.719 27.7617C285.564 27.7617 291.374 29.7148 295.15 33.6211C298.926 37.5273 300.814 42.6543 300.814 49.002V49.4902C300.814 56.3587 298.926 61.7298 295.15 65.6035C291.374 69.4772 285.596 71.4141 277.816 71.4141C271.99 71.4141 267.188 70.4049 263.412 68.3867C259.669 66.3685 257.276 64.2363 256.234 61.9902ZM313.607 49.6367C313.607 56.8958 316 62.6901 320.785 67.0195C325.603 71.3164 332.048 73.4648 340.121 73.4648C348.194 73.4648 354.639 71.3164 359.457 67.0195C364.307 62.6901 366.732 56.8958 366.732 49.6367V49.0508C366.732 42.0521 364.307 36.4043 359.457 32.1074C354.639 27.8105 348.194 25.6621 340.121 25.6621C332.081 25.6621 325.652 27.8105 320.834 32.1074C316.016 36.4043 313.607 42.0521 313.607 49.0508V49.6367ZM316.293 49.0996C316.293 42.2637 318.327 37.0065 322.396 33.3281C326.465 29.6172 332.374 27.7617 340.121 27.7617C347.966 27.7617 353.907 29.6172 357.943 33.3281C361.98 37.0065 363.998 42.2637 363.998 49.0996V49.832C363.998 57.1237 361.98 62.5599 357.943 66.1406C353.907 69.6888 347.966 71.4629 340.121 71.4629C332.374 71.4629 326.465 69.6888 322.396 66.1406C318.327 62.5599 316.293 57.14 316.293 49.8809V49.0996ZM372.689 29.4707H408.139V27.127H372.689V29.4707ZM386.117 58.2793C386.117 63.3574 387.403 67.0846 389.975 69.4609C392.579 71.8047 395.769 72.9766 399.545 72.9766C402.247 72.9766 404.102 72.8301 405.111 72.5371C406.12 72.2441 407.032 71.9349 407.846 71.6094L406.771 69.9004C405.958 70.1934 405.014 70.4863 403.939 70.7793C402.898 71.0723 401.319 71.2188 399.203 71.2188C395.785 71.2188 393.181 70.1283 391.391 67.9473C389.6 65.7337 388.705 62.2018 388.705 57.3516V9.79297H386.117V27.6641V58.2793Z" fill="white"/>
</svg>
